<?xml version="1.0" encoding="iso-8859-1"?>
<!-- Generator: Adobe Illustrator 19.0.0, SVG Export Plug-In . SVG Version: 6.00 Build 0)  -->
<svg version="1.1" id="Layer_1" xmlns="http://www.w3.org/2000/svg" xmlns:xlink="http://www.w3.org/1999/xlink" x="0px" y="0px"
	 viewBox="0 0 511.999 511.999" style="enable-background:new 0 0 511.999 511.999;" xml:space="preserve">
<g>
	<g>
		<g>
			<rect x="219.243" y="152.138" width="16.014" height="15.536"/>
			<rect x="43.079" y="440.412" width="16.014" height="15.536"/>
			<rect x="75.11" y="440.412" width="16.014" height="15.536"/>
			<rect x="59.098" y="416.384" width="16.014" height="15.536"/>
			<rect x="59.098" y="464.431" width="16.014" height="15.536"/>
			<rect x="203.23" y="440.412" width="16.014" height="15.536"/>
			<rect x="235.255" y="440.412" width="16.014" height="15.536"/>
			<rect x="219.243" y="416.384" width="16.014" height="15.536"/>
			<rect x="219.243" y="464.431" width="16.014" height="15.536"/>
			<path d="M482.78,440.553c-3.777-31.561-30.664-56.12-63.209-56.191l7.553-157.959c19.4-9.117,32.105-28.785,32.105-50.478
				c0-19.528-9.993-37.248-26.402-47.39l2.85-48.461H419.19v-0.239c0-39.605-32.221-71.828-71.828-71.828
				c-8.331,0-16.483,1.432-24.301,4.265C314.315,4.416,303.014,0,291.311,0c-18.228,0-34.389,10.209-42.419,26.11
				c-4.469-1.387-9.031-2.087-13.633-2.087c-26.36,0-47.805,21.446-47.805,47.805c0,2.813,0.258,5.565,0.726,8.246h-9.205
				l2.85,48.461c-16.409,10.142-26.403,27.861-26.403,47.39c0,21.691,12.699,41.355,32.095,50.473l7.638,167.258
				c-5.708,3.47-10.877,7.829-15.285,12.96c-11.713-13.612-29.046-22.257-48.371-22.257H68.154c-35.191,0-63.821,28.63-63.821,63.82
				c0,35.19,28.63,63.82,63.821,63.82h63.348c19.325,0,36.656-8.645,48.37-22.257c11.996,13.963,29.62,22.257,48.432,22.257H419.43
				c32.509,0,59.401-24.44,63.312-55.908l24.616,0.488l0.308-15.533L482.78,440.553z M68.154,496.464
				c-26.624,0-48.285-21.66-48.285-48.285c0-26.623,21.66-48.284,48.285-48.284s48.285,21.66,48.285,48.284
				C116.437,474.804,94.777,496.464,68.154,496.464z M131.502,496.464h-21.687c13.555-11.712,22.158-29.008,22.158-48.285
				s-8.603-36.572-22.158-48.284h21.686c26.624,0,48.285,21.66,48.285,48.284C179.786,474.804,158.126,496.464,131.502,496.464z
				 M235.258,39.559c4.86,0,9.712,1.206,14.425,3.584l8.242,4.158l2.689-8.831c4.175-13.718,16.512-22.934,30.697-22.934
				c9.242,0,17.789,3.911,24.065,11.012l3.784,4.283l5.214-2.34c7.318-3.282,15.053-4.947,22.988-4.947
				c31.04,0,56.292,25.252,56.292,56.292v0.239l-136.981-0.001l-2.035,4.657c-5.142,11.765-16.675,19.367-29.381,19.367
				c-17.794,0-32.269-14.476-32.269-32.269C202.989,54.035,217.464,39.559,235.258,39.559z M170.959,175.925
				c0-2.813,0.294-5.571,0.849-8.248h31.421v-15.536h-24.494c3.731-5.072,8.677-9.3,14.594-12.247l4.592-2.287l-2.298-39.077
				c8.599,12.723,23.157,21.104,39.635,21.104c17.139,0,32.829-9.278,41.273-24.024L419.2,95.611l-2.471,41.997l4.593,2.287
				c5.916,2.948,10.863,7.176,14.593,12.247H251.272v15.536h191.57c0.555,2.676,0.849,5.434,0.849,8.247
				c0,16.932-10.735,32.153-26.714,37.878l-4.892,1.751l-8.069,168.804H228.303c-6.147,0-12.164,0.894-17.902,2.572l-7.826-171.373
				l-4.902-1.756C181.694,208.079,170.959,192.857,170.959,175.925z M228.303,496.464c-15.762,0-30.405-7.712-39.402-20.409
				c4.11-8.428,6.422-17.886,6.422-27.876c0-9.99-2.312-19.448-6.422-27.876c8.997-12.697,23.638-20.408,39.402-20.408
				c26.624,0,48.285,21.66,48.285,48.284C276.588,474.804,254.928,496.464,228.303,496.464z M419.43,496.464H269.964
				c13.556-11.712,22.159-29.008,22.159-48.285s-8.604-36.572-22.158-48.284H419.43c26.624,0,48.285,21.66,48.285,48.284
				C467.715,474.804,446.055,496.464,419.43,496.464z"/>
		</g>
	</g>
</g>
<g>
</g>
<g>
</g>
<g>
</g>
<g>
</g>
<g>
</g>
<g>
</g>
<g>
</g>
<g>
</g>
<g>
</g>
<g>
</g>
<g>
</g>
<g>
</g>
<g>
</g>
<g>
</g>
<g>
</g>
</svg>
