<?xml version="1.0" encoding="iso-8859-1"?>
<!-- Generator: Adobe Illustrator 19.0.0, SVG Export Plug-In . SVG Version: 6.00 Build 0)  -->
<svg version="1.1" id="Layer_1" xmlns="http://www.w3.org/2000/svg" xmlns:xlink="http://www.w3.org/1999/xlink" x="0px" y="0px"
	 viewBox="0 0 512 512" style="enable-background:new 0 0 512 512;" xml:space="preserve">
<g>
	<g>
		<path d="M332.461,76.461c-20.816,0-37.75-16.934-37.75-37.75c0-10.344-4.026-20.066-11.337-27.377C276.064,4.026,266.343,0,256,0
			s-20.064,4.026-27.376,11.336c-7.309,7.31-11.336,17.033-11.336,27.376c0,10.087-3.925,19.567-11.047,26.689
			c-7.144,7.133-16.626,11.062-26.703,11.062c-11.378,0-22.062,4.429-30.071,12.46c-8.025,8.025-12.446,18.7-12.446,30.058v37.994
			V467.75c0,24.399,19.852,44.25,44.251,44.25h149.455c24.4,0,44.251-19.852,44.251-44.251V156.973v-37.994
			C374.979,95.535,355.905,76.461,332.461,76.461z M347.889,467.749c0,9.463-7.699,17.161-17.161,17.161H181.272
			c-9.463,0-17.161-7.699-17.161-17.161v-26.291h45.755c7.481,0,13.545-6.064,13.545-13.545s-6.064-13.545-13.545-13.545h-45.755
			v-39.944h45.755c7.481,0,13.545-6.064,13.545-13.545s-6.064-13.545-13.545-13.545h-45.755v-39.958h45.755
			c7.481,0,13.545-6.064,13.545-13.545s-6.064-13.545-13.545-13.545h-45.755v-39.944h45.755c7.481,0,13.545-6.064,13.545-13.545
			c0-7.481-6.064-13.545-13.545-13.545h-45.755v-42.734h183.778V467.749z M347.889,143.428H164.111v-24.449
			c0-4.12,1.602-7.993,4.524-10.915c2.903-2.909,6.774-4.513,10.902-4.513c17.305,0,33.586-6.741,45.852-18.989
			c12.245-12.246,18.989-28.528,18.989-45.851c0-3.107,1.208-6.028,3.4-8.219c2.194-2.194,5.115-3.402,8.222-3.402
			s6.028,1.208,8.22,3.401c2.194,2.193,3.401,5.112,3.401,8.22c0,35.753,29.088,64.84,64.84,64.84
			c8.506,0,15.428,6.92,15.428,15.428V143.428z"/>
	</g>
</g>
<g>
	<g>
		<path d="M311.562,305.141c-7.481,0-13.545,6.064-13.545,13.545v122.541c0,7.481,6.064,13.545,13.545,13.545
			c7.481,0,13.545-6.064,13.545-13.545V318.686C325.106,311.205,319.042,305.141,311.562,305.141z"/>
	</g>
</g>
<g>
	<g>
		<path d="M311.562,252.587c-7.481,0-13.545,6.064-13.545,13.545v9.468c0,7.481,6.064,13.545,13.545,13.545
			c7.481,0,13.545-6.064,13.545-13.545v-9.468C325.106,258.651,319.042,252.587,311.562,252.587z"/>
	</g>
</g>
<g>
</g>
<g>
</g>
<g>
</g>
<g>
</g>
<g>
</g>
<g>
</g>
<g>
</g>
<g>
</g>
<g>
</g>
<g>
</g>
<g>
</g>
<g>
</g>
<g>
</g>
<g>
</g>
<g>
</g>
</svg>
