<?xml version="1.0" encoding="iso-8859-1"?>
<!-- Generator: Adobe Illustrator 19.0.0, SVG Export Plug-In . SVG Version: 6.00 Build 0)  -->
<svg version="1.1" id="Layer_1" xmlns="http://www.w3.org/2000/svg" xmlns:xlink="http://www.w3.org/1999/xlink" x="0px" y="0px"
	 viewBox="0 0 512 512" style="enable-background:new 0 0 512 512;" xml:space="preserve">
<g>
	<g>
		<path d="M469.333,26.667H42.667C19.103,26.667,0,45.769,0,69.333v320C0,412.898,19.103,432,42.667,432H192v32h-74.667
			c-5.891,0-10.667,4.776-10.667,10.667s4.776,10.667,10.667,10.667h277.333c5.891,0,10.667-4.776,10.667-10.667
			S400.558,464,394.667,464H320v-32h149.333C492.898,432,512,412.898,512,389.333v-320C512,45.769,492.898,26.667,469.333,26.667z
			 M298.667,464h-85.333v-32h85.333V464z M490.667,389.333c0,11.782-9.551,21.333-21.333,21.333H42.667
			c-11.782,0-21.333-9.551-21.333-21.333v-320C21.333,57.551,30.885,48,42.667,48h426.667c11.782,0,21.333,9.551,21.333,21.333
			V389.333z"/>
	</g>
</g>
<g>
	<g>
		<path d="M42.667,69.333v277.333h426.667V69.333H42.667z M448,325.333H64V90.667h384V325.333z"/>
	</g>
</g>
<g>
	<g>
		<circle cx="256" cy="378.667" r="21.333"/>
	</g>
</g>
<g>
</g>
<g>
</g>
<g>
</g>
<g>
</g>
<g>
</g>
<g>
</g>
<g>
</g>
<g>
</g>
<g>
</g>
<g>
</g>
<g>
</g>
<g>
</g>
<g>
</g>
<g>
</g>
<g>
</g>
</svg>
